PathFileType	4	(X/Y/Z)	30_1_32_p1_0-269_filt_butterworth.trc
DataRate	CameraRate	NumFrames	NumMarkers	Units	OrigDataRate	OrigDataStartFrame	OrigNumFrames
59.0	59.0	5	27	m	59.0	134	269
Frame#	Time	RHip			RKnee			RAnkle			RBigToe			RSmallToe			RHeel			LHip			LKnee			LAnkle			LBigToe			LSmallToe			LHeel			Neck			Head			Nose			RShoulder			RElbow			RWrist			RThumb			RIndex			RPinky			LShoulder			LElbow			LWrist			LThumb			LIndex			LPinky			
		X1	Y1	Z1	X2	Y2	Z2	X3	Y3	Z3	X4	Y4	Z4	X5	Y5	Z5	X6	Y6	Z6	X7	Y7	Z7	X8	Y8	Z8	X9	Y9	Z9	X10	Y10	Z10	X11	Y11	Z11	X12	Y12	Z12	X13	Y13	Z13	X14	Y14	Z14	X15	Y15	Z15	X16	Y16	Z16	X17	Y17	Z17	X18	Y18	Z18	X19	Y19	Z19	X20	Y20	Z20	X21	Y21	Z21	X22	Y22	Z22	X23	Y23	Z23	X24	Y24	Z24	X25	Y25	Z25	X26	Y26	Z26	X27	Y27	Z27	
134	2.2711864406779663	0.28483583919798994	0.5191386363390145	0.8378965764270767	0.30515735011644557	0.5036522393719962	1.3024464619453715	0.311882252740731	0.5535959477583255	1.802224121472371	0.24753624642914346	0.3232538313169173	1.7766684767824266	0.3172645467594353	0.3440475720590767	1.774560442222475	0.30064847177004317	0.6427694315082129	1.8840189924462638	0.07163946628418713	0.5225926828909113	0.8569473332028773	0.08795482004225806	0.4806030719672252	1.3177969517952288	0.10550584500745397	0.5356430131195293	1.8210040638832687	0.11890010314039805	0.2976850382620501	1.7578539001484277	0.07505705166922234	0.30602749568847953	1.7556385456367405	0.11866792352215949	0.6027259213195287	1.894515832972152	0.0765877911520888	0.4926856147846228	0.24110282633836044	0.012718057025343003	0.399249803423605	0.003164518199194389	0.02670449494914937	0.36129031487791896	0.13598694120092222	0.2794287835294157	0.4831888394225443	0.31304535174365766	0.44617305531284446	0.47816148135726777	0.5122794591484212	0.5192450089404015	0.2487180640369256	0.4856860482539959	0.5409371236766739	0.07441050471124946	0.42501623823355494	0.5490291877826283	0.07899890126858185	0.43482841079367174	0.5498200317535561	0.07990161572663983	0.48256741758434085	-0.07696567333864582	0.5365662461497704	0.3855303722472572	-0.21452640049046395	0.44141400303932815	0.5629855805470764	-0.3753256205318486	0.27965030754475223	0.6236515692735182	-0.47244990510403495	0.22044588766552153	0.6467719358100308	-0.5032478771583987	0.2015420922460569	0.6321702719480727	-0.4650427558163583	0.19185647374889012	0.6666686731911478
135	2.288135593220339	0.2836713785775618	0.5236699225002941	0.8397227725343062	0.30400860410685554	0.5004013183436682	1.3013652014474586	0.3088595707364872	0.5530488904140376	1.8045474580556264	0.24706505183025593	0.3214596629604808	1.776434188780143	0.317419375913371	0.3395430197739839	1.7724662974489225	0.29880152294643725	0.6428736755165602	1.8844967464665927	0.0671634706563412	0.522077522592958	0.8571805223416458	0.08742012359142003	0.48353901839786056	1.3186025025508257	0.10345400430818305	0.5344802794191927	1.819881709321365	0.11879286815406452	0.3013473327873416	1.760635332799773	0.07383027606779416	0.3095710410495757	1.7584331919860534	0.11855881218921144	0.60081974224951	1.894012301250139	0.08114590803453216	0.49273173643886164	0.24116745377752366	0.022370711958016324	0.4015564898444125	0.0006827056702658952	0.03008544210683054	0.36548744620702356	0.13403849361407613	0.28227810626761846	0.48278764757278564	0.31688470965407417	0.44533378726140577	0.490095126938364	0.5223389640486682	0.5169924472560096	0.2456061044715585	0.49827337998889487	0.5378624856613016	0.07822602632831877	0.4417299926281629	0.5470633384163766	0.08887630109152866	0.4525108644801392	0.5402472444815374	0.0936707179694562	0.507911804047176	-0.07407255737177826	0.5369553870565931	0.38173892219818456	-0.21168338623237848	0.44803192755708193	0.5619183562097024	-0.3643323261010016	0.27017272414058346	0.6262702551415701	-0.44776003212296506	0.19626450119247874	0.6526029028843519	-0.4860487233994659	0.19618148055036896	0.6436471065311179	-0.45464696625614687	0.20694806960852913	0.6837735371456723
136	2.305084745762712	0.28307765006267205	0.5271083490952864	0.842123427776265	0.30390220511037297	0.4995645226176528	1.3017185962472748	0.3064035814676232	0.5525444739771709	1.8077183267183354	0.24721044861123315	0.3210880996808445	1.777721364529853	0.31787051919684756	0.3361990694149066	1.7717058291841081	0.2954742680507467	0.641520079278953	1.8852675413876623	0.06295399268999637	0.5212877026490954	0.8585139352532273	0.08671638769544356	0.4870804367535435	1.3201443650907725	0.10137745985331433	0.534829611163959	1.8184482166457991	0.11860975586156239	0.30979639332961845	1.7666746877623585	0.07215896394062622	0.3153087857093651	1.762365365615562	0.11896502800695721	0.6003172149967024	1.8934643061973115	0.08506097009916495	0.4935225831045137	0.24124126399853965	0.03494498817445849	0.41326726864199054	-0.0012821116778033558	0.03783260662382995	0.3669796247699819	0.13249755196710522	0.2861300906940562	0.4827680188876921	0.32114050942244965	0.4424947917593228	0.4908515211400035	0.5293383192633039	0.5161203830514176	0.2420952631342524	0.5163962013350675	0.5307795231180509	0.08056703443217353	0.4604165530605516	0.5414075912149284	0.10041981079374648	0.4736041366051132	0.5304562989846202	0.10915430705249542	0.5342859347161711	-0.07121763614481745	0.5371729215032384	0.37767845608308326	-0.20806953664720637	0.45426810028001496	0.5606929141290455	-0.35700679542294056	0.2674350862937718	0.6293608928643539	-0.421245367771537	0.17865575984843535	0.659664656787967	-0.46787613452737553	0.19559991979319968	0.6623833243665762	-0.44767357386488604	0.2203827344519912	0.7011417876827047
137	2.3220338983050848	0.28316172601417255	0.528566139639868	0.8448202466153472	0.3042531446259772	0.5015134497628966	1.3033344479482063	0.30555248915988864	0.5522779696856881	1.8111609032387013	0.24757897733166176	0.3213689981692994	1.778932609706514	0.31836710768797066	0.3347861499379388	1.77171829714859	0.2916083983342613	0.6374645446126991	1.8857511415838717	0.060534447699713285	0.520945002388329	0.8612646358019687	0.0854352507941653	0.4914133454669411	1.3221336173376281	0.10028205512998539	0.5360147286299043	1.8171372469280869	0.11867849601611255	0.3169739288321891	1.7721492334921876	0.07099104487367236	0.3193660658156614	1.7650959009930647	0.11920208218987421	0.6001296050439902	1.8928674639163727	0.08884608116096814	0.49628862673179797	0.24140452973324483	0.05021043646006859	0.4259666019357108	-0.002839893968651677	0.05211759059749506	0.36341551023193286	0.13072597714675488	0.29048856245447086	0.4842138648897085	0.32475757250112613	0.4402331106962492	0.4855511129779115	0.5342610106747467	0.5156448630451205	0.2417439020985354	0.5371932444970047	0.518872775616814	0.07852240544663418	0.4805051718083589	0.5313412723349851	0.10710111673035369	0.4977218487823757	0.5228421020787077	0.11989165163867903	0.5605659068727629	-0.06935135454384189	0.5373669800847451	0.3730595660747699	-0.2044983642346774	0.45972911866110117	0.5594842324670564	-0.3515992332069937	0.2700776526931823	0.6342012510115724	-0.39580107537438514	0.1714751337735732	0.6695585954332572	-0.4505727949842183	0.20066236707408347	0.6850878412356475	-0.4419682323256531	0.22883623832088654	0.7165366671419281
138	2.3389830508474576	0.2832969792198172	0.528684056104181	0.8472187532158687	0.3040427905316721	0.5061046858792884	1.3063868380947683	0.3060639324179777	0.5521982174163682	1.81378135461681	0.24806563401260978	0.3217221609531501	1.7796506680029578	0.31913378977734724	0.3344418027976768	1.7717594649795125	0.28853222808143597	0.6319393442201406	1.8853762021301879	0.06004511305045738	0.5209103654954143	0.864159566526138	0.0838005221004515	0.49494378463086236	1.3239286121688036	0.09998449340101402	0.5362637376442376	1.8169267562658675	0.11973393011316569	0.3175894219515107	1.7732993617849246	0.07102077188398524	0.31941210933482134	1.7651736347512652	0.11853082213329104	0.5990631726436038	1.8924885278868921	0.09367724954575779	0.5013064859261539	0.24166316507877073	0.0659657871670933	0.4289961995273747	-0.004274958792027983	0.0706860120336657	0.35685382806858423	0.12832839874801122	0.2948856661668631	0.488540808166529	0.32790567587168995	0.4400492323337583	0.4826173205726841	0.5400001489202987	0.5156212409323594	0.24615561660273444	0.5550752880871613	0.507104098258477	0.07375017838103944	0.5004031598503653	0.5204395759872014	0.10656944721628174	0.5216793150457348	0.5190866693636611	0.12462634098262741	0.5859611335051473	-0.06835404132714716	0.5376690812656305	0.3679928268694852	-0.20174600252639147	0.4658652149065591	0.5589477626080419	-0.3459470611011656	0.27666994099920944	0.6416035925367797	-0.37356004494402356	0.17399067879039398	0.6833449312315525	-0.43344750809823634	0.2045397922302103	0.7043833897269399	-0.43227956767288545	0.23242139107590742	0.7285407330595429
